HIERARCHY
ROOT Hips
{
	OFFSET -3.958830 18.904000 13.208200
	CHANNELS 6 Xposition Yposition Zposition Zrotation Yrotation Xrotation 
	JOINT LHipJoint
	{
		OFFSET 0.000000 0.000000 0.000000
		CHANNELS 3 Zrotation Yrotation Xrotation
		JOINT LeftUpLeg
		{
			OFFSET 1.800000 -1.400000 0.085000
			CHANNELS 3 Zrotation Yrotation Xrotation
			JOINT LeftLeg
			{
				OFFSET 2.215000 -6.000000 0.000000
				CHANNELS 3 Zrotation Yrotation Xrotation
				JOINT LeftFoot
				{
					OFFSET 2.500000 -6.900000 0.000000
					CHANNELS 3 Zrotation Yrotation Xrotation
					JOINT LeftToeBase
					{
						OFFSET 0.200000 -0.500000 1.950000
						CHANNELS 3 Zrotation Yrotation Xrotation
						End Site
						{
							OFFSET 0.000000 0.000000 0.000000
						}
					}
				}
			}
		}
	}
	JOINT RHipJoint
	{
		OFFSET 0.000000 0.000000 0.000000
		CHANNELS 3 Zrotation Yrotation Xrotation
		JOINT RightUpLeg
		{
			OFFSET -1.800000 -1.400000 0.085000
			CHANNELS 3 Zrotation Yrotation Xrotation
			JOINT RightLeg
			{
				OFFSET -2.215000 -6.000000 0.000000
				CHANNELS 3 Zrotation Yrotation Xrotation
				JOINT RightFoot
				{
					OFFSET -2.500000 -6.900000 0.000000
					CHANNELS 3 Zrotation Yrotation Xrotation
					JOINT RightToeBase
					{
						OFFSET -0.200000 -0.500000 1.950000
						CHANNELS 3 Zrotation Yrotation Xrotation
						End Site
						{
							OFFSET 0.000000 0.000000 0.000000
						}
					}
				}
			}
		}
	}
	JOINT LowerBack
	{
		OFFSET 0.000000 0.000000 0.000000
		CHANNELS 3 Zrotation Yrotation Xrotation
		JOINT Spine
		{
			OFFSET -0.087000 1.940000 -0.288900
			CHANNELS 3 Zrotation Yrotation Xrotation
			JOINT Spine1
			{
				OFFSET 0.000000 1.950000 0.060000
				CHANNELS 3 Zrotation Yrotation Xrotation
				JOINT Neck
				{
					OFFSET 0.000000 0.000000 0.000000
					CHANNELS 3 Zrotation Yrotation Xrotation
					JOINT Neck1
					{
						OFFSET 0.000000 1.600000 0.340000
						CHANNELS 3 Zrotation Yrotation Xrotation
						JOINT Head
						{
							OFFSET 0.000000 1.667000 -0.240000
							CHANNELS 3 Zrotation Yrotation Xrotation
							End Site
							{
								OFFSET 0.000000 0.000000 0.000000
							}
						}
					}
				}
				JOINT LeftShoulder
				{
					OFFSET 0.000000 0.000000 0.000000
					CHANNELS 3 Zrotation Yrotation Xrotation
					JOINT LeftArm
					{
						OFFSET 2.700000 1.550000 -0.730000
						CHANNELS 3 Zrotation Yrotation Xrotation
						JOINT LeftForeArm
						{
							OFFSET 5.450000 0.000000 0.000000
							CHANNELS 3 Zrotation Yrotation Xrotation
							JOINT LeftHand
							{
								OFFSET 3.450000 0.000000 0.000000
								CHANNELS 3 Zrotation Yrotation Xrotation
								JOINT LeftHandIndex1
								{
									OFFSET 0.750000 0.000000 0.000000
									CHANNELS 3 Zrotation Yrotation Xrotation
									End Site
									{
										OFFSET 0.000000 0.000000 0.000000
									}
								}
							}
						}
					}
				}
				JOINT RightShoulder
				{
					OFFSET 0.000000 0.000000 0.000000
					CHANNELS 3 Zrotation Yrotation Xrotation
					JOINT RightArm
					{
						OFFSET -2.700000 1.550000 -0.730000
						CHANNELS 3 Zrotation Yrotation Xrotation
						JOINT RightForeArm
						{
							OFFSET -5.450000 0.000000 0.000000
							CHANNELS 3 Zrotation Yrotation Xrotation
							JOINT RightHand
							{
								OFFSET -3.450000 0.000000 0.000000
								CHANNELS 3 Zrotation Yrotation Xrotation
								JOINT RightHandIndex1
								{
									OFFSET -0.750000 0.000000 0.000000
									CHANNELS 3 Zrotation Yrotation Xrotation
									End Site
									{
										OFFSET 0.000000 0.000000 0.000000
									}
								}
							}
						}
					}
				}
			}
		}
	}
}
MOTION
Frames: 8
Frame Time: 0.016667
-1.906920 16.971370 7.984970 -128.098884 -85.636466 134.723904 -15.321086 13.499448 3.103054 6.109646 -1.674768 -11.767142 -4.926208 3.351498 -0.185390 -0.908791 3.855439 3.418342 -0.269250 -0.255270 -0.606550 18.162431 -9.542983 2.827132 -15.150026 1.108035 -15.600097 3.228710 -2.521274 -3.533448 -0.084819 -2.964285 3.511105 0.075280 0.863320 -0.103540 -1.796552 -5.784269 -7.170477 -6.148037 -0.212394 2.906117 1.622104 0.592965 7.322394 -0.316299 -10.541535 -16.084956 -30.661341 26.779743 22.287738 5.223350 16.614950 -10.343100 -4.606174 -20.738174 8.588710 -81.014702 -15.973620 5.449780 -1.026127 -2.314882 -0.348092 -3.824048 2.722750 0.693160 0.242990 -0.205070 0.243440 7.986116 27.248617 11.075236 64.726899 7.992915 -5.249784 0.065897 4.269238 0.061738 2.133101 -0.858488 -0.756000 0.867670 0.553450 -0.021020 
-1.912570 16.953880 7.946190 -136.579755 -85.124728 143.184965 -15.340427 13.582290 3.094745 6.892343 -1.552014 -11.605140 -5.145628 3.472707 -0.031469 -0.910481 3.959584 3.382830 -0.248640 -0.225680 -0.607640 18.152755 -9.453052 2.793903 -14.880620 1.165564 -15.089530 2.868063 -2.441238 -3.726223 -0.088267 -2.971995 3.510201 0.104520 0.876750 -0.106920 -1.982003 -5.570341 -7.147586 -4.409809 -0.333531 2.978409 -0.145707 0.828377 7.522166 -0.201334 -10.765521 -16.220490 -31.551950 26.687417 21.337726 5.401630 16.139480 -10.362270 -4.868783 -21.163518 8.623831 -80.177995 -15.826870 5.786158 0.398946 -0.942216 -0.173142 -3.838649 2.721424 0.682720 0.248830 -0.213150 0.256150 7.877989 27.777825 11.167186 63.666310 8.317862 -4.487183 0.371414 2.496048 0.262458 2.145624 -0.873167 -0.759400 0.884810 0.548510 -0.011850 
-1.916330 16.935190 7.903670 -146.714120 -84.304468 153.269365 -15.425257 13.675960 3.072817 7.527980 -1.420463 -11.484276 -5.208904 3.602257 0.338904 -0.908056 4.037404 3.356244 -0.228420 -0.189670 -0.611840 18.076041 -9.376706 2.756686 -14.779196 1.207670 -14.567582 2.611634 -2.394450 -3.756340 -0.087962 -2.994820 3.507322 0.134800 0.893330 -0.108410 -2.227934 -5.359694 -7.113782 -2.912292 -0.333813 2.947273 -1.846267 1.172951 7.838748 -0.069963 -10.877769 -16.379897 -32.012107 26.790835 20.520783 5.687640 15.979300 -10.077340 -5.112906 -21.727205 8.701673 -78.998409 -15.669670 6.156694 1.368600 0.637041 0.045287 -3.862484 2.728401 0.659840 0.263640 -0.224370 0.269740 7.710133 28.373606 11.288916 62.422243 8.693768 -3.754279 0.998168 1.087186 0.394539 2.154735 -0.893454 -0.756630 0.895100 0.539780 0.000380 
-1.920070 16.921350 7.856740 -155.012272 -83.493955 161.409320 -15.526081 13.738084 3.050779 8.043250 -1.279999 -11.152961 -5.123793 3.693304 0.597613 -0.895577 4.092872 3.344140 -0.214380 -0.162550 -0.612870 17.977537 -9.370717 2.715934 -14.685730 1.210553 -14.284418 2.218476 -2.373013 -3.517426 -0.083009 -2.993432 3.518222 0.155230 0.903670 -0.114840 -2.456067 -5.205665 -7.086851 -1.832508 -0.249856 2.983298 -3.220715 1.543239 8.151357 0.153007 -10.899767 -16.646930 -32.471373 26.958296 20.240430 5.791330 16.044380 -9.621180 -5.216670 -22.339333 8.836756 -77.688838 -15.527341 6.507313 1.634324 2.294164 0.271881 -3.877563 2.727234 0.643320 0.274110 -0.229200 0.285430 7.276129 28.996970 11.470031 61.271125 8.979193 -3.222647 1.500155 -0.021644 0.490224 2.167247 -0.906852 -0.756610 0.903730 0.523360 0.010040 
-1.927020 16.909480 7.810400 -160.722111 -82.783053 167.000807 -15.613474 13.727995 3.013953 8.596723 -1.150656 -10.844486 -5.104608 3.775586 0.825204 -0.871351 4.117921 3.338338 -0.203350 -0.133240 -0.615700 17.890201 -9.395929 2.718894 -14.689471 1.208047 -13.738197 2.076932 -2.365032 -3.661769 -0.101344 -3.032130 3.513602 0.166980 0.900710 -0.128480 -2.734228 -5.003234 -7.087790 -0.530336 -0.178826 3.114578 -4.655145 1.894028 8.143914 0.438815 -10.966054 -17.001524 -33.479922 27.163524 20.306133 6.149990 15.935130 -9.480070 -5.754483 -22.715006 8.961445 -75.985649 -14.933005 6.627551 1.579373 3.771440 0.447437 -3.881472 2.704111 0.637330 0.264140 -0.218680 0.298120 7.200161 29.419870 11.687642 59.977649 8.952242 -2.764787 1.954976 -1.122511 0.601219 2.194690 -0.896785 -0.750120 0.916160 0.505720 0.024720 
-1.935800 16.894830 7.763820 -163.476512 -82.227716 169.621115 -15.655441 13.694031 2.971795 9.339869 -1.029147 -10.537188 -5.034640 3.847264 1.021095 -0.844958 4.146051 3.320268 -0.181170 -0.099630 -0.612830 17.849695 -9.446916 2.713984 -14.506860 1.210794 -13.229574 1.911135 -2.361850 -3.662481 -0.116760 -3.069666 3.499676 0.179990 0.889110 -0.129820 -3.007266 -4.802094 -7.070986 1.031520 -0.234586 3.197718 -6.117003 2.106532 8.277074 0.681529 -11.013271 -17.313792 -34.324888 27.339514 20.319019 6.671800 15.704050 -9.058680 -5.871537 -22.939832 9.114486 -74.909665 -14.437585 6.656018 1.857905 5.057093 0.596867 -3.881803 2.720411 0.622200 0.253300 -0.212750 0.307110 6.739170 29.612885 11.778095 58.696511 9.058052 -2.317258 2.715859 -2.172603 0.661492 2.224405 -0.905390 -0.729420 0.904380 0.488430 0.037840 
-1.949180 16.879420 7.714980 -165.909139 -81.955572 171.969586 -15.686298 13.655398 2.937637 9.946312 -0.919097 -10.177193 -4.960764 3.901895 1.108394 -0.822361 4.172401 3.307450 -0.176720 -0.085100 -0.627540 17.819476 -9.506326 2.705633 -14.380767 1.194290 -12.784843 1.778640 -2.377999 -3.569420 -0.124104 -3.103599 3.493169 0.183420 0.888750 -0.140690 -3.272508 -4.619185 -7.057002 2.580029 -0.348870 3.260153 -7.686929 2.274386 8.239558 1.004763 -11.030436 -17.695366 -35.262001 27.597120 20.309555 7.404660 15.444800 -8.432120 -6.156493 -23.104661 9.279311 -73.671832 -13.666498 6.547583 1.993396 6.504859 0.739762 -3.887835 2.722505 0.611950 0.243790 -0.216400 0.313530 6.323551 29.702884 11.893508 57.698798 8.824180 -2.151885 3.195497 -3.008889 0.702823 2.248086 -0.901586 -0.720520 0.901680 0.483470 0.051070 
-1.963090 16.858730 7.668580 -167.004182 -82.388569 173.217873 -15.695999 13.621078 2.927475 10.527977 -0.889387 -10.277427 -5.056275 3.952290 1.195265 -0.818181 4.218475 3.294032 -0.196440 -0.112380 -0.660190 17.806690 -9.561350 2.688005 -14.261257 1.197019 -12.391272 1.626279 -2.423897 -3.350745 -0.126344 -3.137554 3.490595 0.167450 0.915200 -0.130900 -3.512048 -4.484317 -7.047712 4.266922 -0.491399 3.553898 -9.180351 2.378502 7.976391 1.347917 -11.039090 -18.005748 -36.345276 27.825919 19.901225 7.581920 15.262370 -7.736830 -6.729436 -22.883369 9.289223 -72.219636 -12.886016 6.396252 2.106098 7.667177 0.802590 -3.928257 2.709717 0.607600 0.254990 -0.229690 0.319780 6.162431 29.282024 11.999627 56.883063 7.776602 -2.746453 2.910021 -2.078618 0.602618 2.229412 -0.884459 -0.721290 0.905950 0.505670 0.061050 
